<svg xmlns="http://www.w3.org/2000/svg" viewBox="0 0 60 94.56"><title>logo</title><g id="Layer_2" data-name="Layer 2"><path d="M30,88.9h0a24.35,24.35,0,0,0,9.82-46.61l-1.68-.75V17.25a8,8,0,0,1,8-8h0a2.83,2.83,0,1,1,0,5.65h0a2.31,2.31,0,0,0-2.3,2.3V37.93A30,30,0,0,1,30,94.56h0V88.9Zm0,0h0a24.35,24.35,0,0,1-9.82-46.61l1.68-.75V17.25a8,8,0,0,0-8-8h0a2.83,2.83,0,1,0,0,5.65h0a2.31,2.31,0,0,1,2.3,2.3V37.93A30,30,0,0,0,30,94.56h0V88.9Z" style="fill:#4d62ad"/><path id="_Path_" data-name="&lt;Path&gt;" d="M32.74,67.43C26.07,58.73,13.12,58.38,8,59.56a22.55,22.55,0,0,0,42.3,14.82C45.91,75.74,38.54,75,32.74,67.43Z" style="fill:#4d62ad"/></g><g id="Layer_5" data-name="Layer 5"><g id="_Group_" data-name="&lt;Group&gt;"><g id="_Group_2" data-name="&lt;Group&gt;"><path id="_Path_2" data-name="&lt;Path&gt;" d="M45,64.49a11.16,11.16,0,0,1-2.68,3.26,25.62,25.62,0,0,1-10.23,5,25.62,25.62,0,0,1-11.38.54c-3.44-.73-5.65-2.37-6.23-4.62A6.75,6.75,0,0,1,16,62.81c1.29-1.58,4.43-4.17,11-3.83l-.07,1.41c-5.92-.3-8.68,1.95-9.8,3.32a5.34,5.34,0,0,0-1.22,4.63c.44,1.7,2.27,3,5.16,3.59a24.19,24.19,0,0,0,10.73-.53,24.19,24.19,0,0,0,9.65-4.72c2.23-1.93,3.22-3.94,2.78-5.64-.79-3.07-5.26-4.59-11.38-3.86l-.17-1.4c6.87-.82,11.93,1.11,12.91,4.91A5.32,5.32,0,0,1,45,64.49Z" style="fill:#4d62ad;stroke:#fff;stroke-miterlimit:10;stroke-width:3px"/></g><g id="_Group_3" data-name="&lt;Group&gt;"><circle id="_Path_3" data-name="&lt;Path&gt;" cx="28.02" cy="60.25" r="1.84" transform="translate(-14.14 8.89) rotate(-14.44)" style="fill:#4d62ad;stroke:#fff;stroke-miterlimit:10;stroke-width:3px"/></g><g id="_Group_4" data-name="&lt;Group&gt;"><circle id="_Path_4" data-name="&lt;Path&gt;" cx="34.05" cy="64.61" r="1.84" transform="translate(-15.04 10.53) rotate(-14.44)" style="fill:#4d62ad;stroke:#fff;stroke-miterlimit:10;stroke-width:3px"/></g><g id="_Group_5" data-name="&lt;Group&gt;"><circle id="_Path_5" data-name="&lt;Path&gt;" cx="27.5" cy="67.32" r="1.84" transform="translate(-15.92 8.98) rotate(-14.44)" style="fill:#4d62ad;stroke:#fff;stroke-miterlimit:10;stroke-width:3px"/></g><path id="_Path_6" data-name="&lt;Path&gt;" d="M33.46,64.65l1.3.56c.18-.41.9-2.06,1.6-4.19q-.54-.56-1.14-1.1A44.21,44.21,0,0,1,33.46,64.65Z" style="fill:#4d62ad;stroke:#fff;stroke-miterlimit:10;stroke-width:3px"/><g id="_Group_6" data-name="&lt;Group&gt;"><path id="_Path_7" data-name="&lt;Path&gt;" d="M19,60a10.68,10.68,0,0,1-.77-1.65c-.57-1.59-.55-2.9.08-3.68,1.09-1.37,3.29-1.79,6.17-1.18A24.19,24.19,0,0,1,34,58.31a24.43,24.43,0,0,1,6.87,8.24l.24-.2c.32-.27.6-.55.86-.82a26,26,0,0,0-7.09-8.33,25.62,25.62,0,0,0-10.17-5.14c-3.44-.73-6.13-.14-7.57,1.68-.94,1.18-1,3-.3,5a12.29,12.29,0,0,0,.88,1.89A11,11,0,0,1,19,60Z" style="fill:#4d62ad;stroke:#fff;stroke-miterlimit:10;stroke-width:3px"/><path id="_Path_8" data-name="&lt;Path&gt;" d="M19,62.55a14.53,14.53,0,0,0,8.15,5.35l.29-1.38a13.14,13.14,0,0,1-7.18-4.67A8.87,8.87,0,0,0,19,62.55Z" style="fill:#4d62ad;stroke:#fff;stroke-miterlimit:10;stroke-width:3px"/><path id="_Path_9" data-name="&lt;Path&gt;" d="M42.6,68.06c-.29.25-.6.5-.91.74a4.64,4.64,0,0,1-.55,4c-1.49,1.87-4.88,2.43-8.68.27l-.25.07q-.84.22-1.68.38c4.95,3.46,9.67,2.73,11.72.16a4.61,4.61,0,0,0,.5-.78,6.9,6.9,0,0,0,.15-5.14Z" style="fill:#4d62ad;stroke:#fff;stroke-miterlimit:10;stroke-width:3px"/></g><g id="_Group_7" data-name="&lt;Group&gt;"><path id="_Path_10" data-name="&lt;Path&gt;" d="M34.64,49.5a2.33,2.33,0,0,1,1.42,1.37,8.54,8.54,0,0,1,.27,4.31c.49,0,1,0,1.42.1a9.8,9.8,0,0,0-.39-5,3.72,3.72,0,0,0-2.26-2.14c-2.78-1-6.14.57-9.13,3.78q.74.21,1.48.49C29.91,50,32.54,48.78,34.64,49.5Z" style="fill:#4d62ad;stroke:#fff;stroke-miterlimit:10;stroke-width:3px"/></g><g id="_Group_8" data-name="&lt;Group&gt;"><path id="_Path_11" data-name="&lt;Path&gt;" d="M29,80.06a2.33,2.33,0,0,0,1.87-.64,8.54,8.54,0,0,0,2.06-3.8c.45.19.89.36,1.33.51a9.8,9.8,0,0,1-2.44,4.35,3.72,3.72,0,0,1-2.95,1c-2.92-.3-5.33-3.1-6.69-7.27q.75.12,1.55.18C24.92,77.66,26.81,79.83,29,80.06Z" style="fill:#4d62ad;stroke:#fff;stroke-miterlimit:10;stroke-width:3px"/></g></g><path d="M23.15,58.39C18.39,58,12.65,66.83,16,70.9c1.31,1.58,3.36,1.35,4.9.31s2.43-2.83,3.56-4.1a44.68,44.68,0,0,1,6.36-5.84l-3.67-2.82c-.22,1.47-2.57,3-3.43,4.19a17.83,17.83,0,0,0-1.91,3.29C21,67.78,19.88,70.2,21.36,72c3.79,4.64,10.14-5.19,12.07-7.27l-4.18-1.1c.89,2.48-4.64,5.43-5.46,7.79a4.61,4.61,0,0,0,1.49,5.28c4.84,3.63,7.7-5.09,11.5-6.15l-3.08-3.08c-.56,4-5.74,6-6.92,10-.56,1.95,1.86,4.16,3.67,2.82a15.1,15.1,0,0,0,2.87-2.69c1.7-2,3.44-2.33,5.89-3.19s4-1.52,5.48-3.62c1.87-2.63-2.46-5.13-4.32-2.52-1.39,2-4.93,1.52-7,2.57C31,72.09,30,74.48,27.94,76l3.67,2.82c1.18-4.11,6.27-5.41,6.92-10,.25-1.81-1.06-3.64-3.08-3.08A10,10,0,0,0,31.31,68c-1.23,1.09-5.1,5.05-1.2,3.4a7.64,7.64,0,0,0,4-9.06c-.6-1.68-2.81-2.58-4.18-1.1-1.09,1.18-3.14,2.68-3.85,4.16q-2.59,1.45,0,3.36a10,10,0,0,1,1.88-3.25c1.48-1.95,3.69-3.12,4.07-5.68.27-1.84-1.71-4.32-3.67-2.82-1.09.83-10.38,9.78-9.66,10l1.75,1.75a5.71,5.71,0,0,1,2.76-5.33c3.21.28,3.19-4.72,0-5Z" style="fill:#fff"/><g id="_Group_9" data-name="&lt;Group&gt;"><g id="_Group_10" data-name="&lt;Group&gt;"><path id="_Path_12" data-name="&lt;Path&gt;" d="M45,64.49a11.16,11.16,0,0,1-2.68,3.26,25.62,25.62,0,0,1-10.23,5,25.62,25.62,0,0,1-11.38.54c-3.44-.73-5.65-2.37-6.23-4.62A6.75,6.75,0,0,1,16,62.81c1.29-1.58,4.43-4.17,11-3.83l-.07,1.41c-5.92-.3-8.68,1.95-9.8,3.32a5.34,5.34,0,0,0-1.22,4.63c.44,1.7,2.27,3,5.16,3.59a24.19,24.19,0,0,0,10.73-.53,24.19,24.19,0,0,0,9.65-4.72c2.23-1.93,3.22-3.94,2.78-5.64-.79-3.07-5.26-4.59-11.38-3.86l-.17-1.4c6.87-.82,11.93,1.11,12.91,4.91A5.32,5.32,0,0,1,45,64.49Z" style="fill:#4d62ad"/></g><g id="_Group_11" data-name="&lt;Group&gt;"><circle id="_Path_13" data-name="&lt;Path&gt;" cx="28.02" cy="60.25" r="1.84" transform="translate(-14.14 8.89) rotate(-14.44)" style="fill:#4d62ad"/></g><g id="_Group_12" data-name="&lt;Group&gt;"><circle id="_Path_14" data-name="&lt;Path&gt;" cx="34.05" cy="64.61" r="1.84" transform="translate(-15.04 10.53) rotate(-14.44)" style="fill:#4d62ad"/></g><g id="_Group_13" data-name="&lt;Group&gt;"><circle id="_Path_15" data-name="&lt;Path&gt;" cx="27.5" cy="67.32" r="1.84" transform="translate(-15.92 8.98) rotate(-14.44)" style="fill:#4d62ad"/></g><path id="_Path_16" data-name="&lt;Path&gt;" d="M33.46,64.65l1.3.56c.18-.41.9-2.06,1.6-4.19q-.54-.56-1.14-1.1A44.21,44.21,0,0,1,33.46,64.65Z" style="fill:#4d62ad"/><g id="_Group_14" data-name="&lt;Group&gt;"><path id="_Path_17" data-name="&lt;Path&gt;" d="M19,60a10.68,10.68,0,0,1-.77-1.65c-.57-1.59-.55-2.9.08-3.68,1.09-1.37,3.29-1.79,6.17-1.18A24.19,24.19,0,0,1,34,58.31a24.43,24.43,0,0,1,6.87,8.24l.24-.2c.32-.27.6-.55.86-.82a26,26,0,0,0-7.09-8.33,25.62,25.62,0,0,0-10.17-5.14c-3.44-.73-6.13-.14-7.57,1.68-.94,1.18-1,3-.3,5a12.29,12.29,0,0,0,.88,1.89A11,11,0,0,1,19,60Z" style="fill:#4d62ad"/><path id="_Path_18" data-name="&lt;Path&gt;" d="M19,62.55a14.53,14.53,0,0,0,8.15,5.35l.29-1.38a13.14,13.14,0,0,1-7.18-4.67A8.87,8.87,0,0,0,19,62.55Z" style="fill:#4d62ad"/><path id="_Path_19" data-name="&lt;Path&gt;" d="M42.6,68.06c-.29.25-.6.5-.91.74a4.64,4.64,0,0,1-.55,4c-1.49,1.87-4.88,2.43-8.68.27l-.25.07q-.84.22-1.68.38c4.95,3.46,9.67,2.73,11.72.16a4.61,4.61,0,0,0,.5-.78,6.9,6.9,0,0,0,.15-5.14Z" style="fill:#4d62ad"/></g><g id="_Group_15" data-name="&lt;Group&gt;"><path id="_Path_20" data-name="&lt;Path&gt;" d="M34.64,49.5a2.33,2.33,0,0,1,1.42,1.37,8.54,8.54,0,0,1,.27,4.31c.49,0,1,0,1.42.1a9.8,9.8,0,0,0-.39-5,3.72,3.72,0,0,0-2.26-2.14c-2.78-1-6.14.57-9.13,3.78q.74.21,1.48.49C29.91,50,32.54,48.78,34.64,49.5Z" style="fill:#4d62ad"/></g><g id="_Group_16" data-name="&lt;Group&gt;"><path id="_Path_21" data-name="&lt;Path&gt;" d="M29,80.06a2.33,2.33,0,0,0,1.87-.64,8.54,8.54,0,0,0,2.06-3.8c.45.19.89.36,1.33.51a9.8,9.8,0,0,1-2.44,4.35,3.72,3.72,0,0,1-2.95,1c-2.92-.3-5.33-3.1-6.69-7.27q.75.12,1.55.18C24.92,77.66,26.81,79.83,29,80.06Z" style="fill:#4d62ad"/></g></g></g><g id="Layer_4" data-name="Layer 4"><circle id="_Path_22" data-name="&lt;Path&gt;" cx="10.7" cy="62.82" r="1.25" style="fill:#fff"/><circle id="_Path_23" data-name="&lt;Path&gt;" cx="18.49" cy="79.35" r="2" style="fill:#fff"/><circle id="_Path_24" data-name="&lt;Path&gt;" cx="40.55" cy="80.35" r="1.5" style="fill:#fff"/><circle id="_Path_25" data-name="&lt;Path&gt;" cx="10.7" cy="62.82" r="1.25" style="fill:#fff"/><circle id="_Path_26" data-name="&lt;Path&gt;" cx="18.49" cy="79.35" r="2" style="fill:#fff"/><circle id="_Path_27" data-name="&lt;Path&gt;" cx="40.55" cy="80.35" r="1.5" style="fill:#fff"/></g><g id="Layer_3" data-name="Layer 3"><circle id="_Path_28" data-name="&lt;Path&gt;" cx="33.77" cy="41.95" r="1.76" style="fill:#4d62ad"/><circle id="_Path_29" data-name="&lt;Path&gt;" cx="30.29" cy="33.87" r="0.85" style="fill:#4d62ad"/><circle id="_Path_30" data-name="&lt;Path&gt;" cx="26.6" cy="25.32" r="1.47" style="fill:#4d62ad"/><circle id="_Path_31" data-name="&lt;Path&gt;" cx="32.01" cy="16.07" r="3.07" style="fill:#4d62ad"/><circle id="_Path_32" data-name="&lt;Path&gt;" cx="22.81" cy="4.5" r="4.5" style="fill:#4d62ad"/></g></svg>